<svg width="688" height="386" viewBox="0 0 688 386" fill="none" xmlns="http://www.w3.org/2000/svg"><path d="M246.856 315.549C246.856 315.549 264.916 321.973 294.084 325.934C323.253 329.895 354.069 331.323 354.069 331.323L350.558 312.908L255.384 301.631L246.856 315.549Z" fill="black"></path><path d="M314.187 216.872C315.19 220.619 432.115 230.897 432.115 230.897L487.8 236.25L534.275 223.76L519.405 197.423L501.309 186.538L371.664 179.008L337.407 195.46L314.187 216.872Z" fill="black"></path><path d="M548.142 286.071C546.852 289.568 548.859 279.29 548.25 271.26C547.641 263.552 543.591 258.163 538.109 259.876C531.05 262.053 527.431 275.329 527.18 282.966C526.893 290.567 528.434 297.455 527.789 298.169C526.069 300.06 463.11 317.654 462.572 316.69C462.035 315.727 467.266 301.916 463.002 284.75C460.064 273.009 452.718 262.909 441.896 266.228C431.075 269.547 425.7 281.681 423.371 293.458C419.966 310.659 423.371 327.932 421.507 329.966C419.644 332 356.613 332.464 354.105 331.358C351.596 330.252 344.931 320.295 342.423 318.617C339.915 316.94 262.515 303.629 258.107 305.734C255.312 307.09 251.406 317.119 246.856 315.584C244.061 314.656 240.728 310.338 240.191 308.946C239.653 307.554 239.08 258.234 239.08 258.234C239.08 258.234 243.702 263.766 250.009 262.838C256.316 261.91 258.358 260.126 258.322 258.591C258.251 254.844 249.436 246.422 249.436 246.422C249.436 246.422 254.631 239.249 270.362 232.397C286.487 225.402 306.554 217.908 306.554 217.908C306.554 217.908 341.706 185.967 366.073 179.044C390.44 172.121 487.656 176.153 507.651 186.36C527.646 196.567 533.952 217.123 534.705 219.014C535.457 220.905 540.116 220.727 542.696 224.403C545.276 228.079 551.618 252.096 551.976 261.339C552.335 270.582 549.432 282.573 548.142 286.071ZM413.66 255.522C411.295 253.988 393.808 256.914 376.572 258.734C359.336 260.554 337.765 266.3 337.406 268.548C336.976 271.189 344.752 275.043 351.704 277.827C358.656 280.61 405.167 277.684 410.578 272.01C416.025 266.335 416.025 257.057 413.66 255.522ZM456.301 202.134C463.325 192.355 465.905 189.643 465.511 188.787C463.038 183.505 381.266 180.507 371.269 182.577C361.271 184.647 347.834 191.499 334.898 201.063C327.266 206.702 321.353 211.627 317.806 214.696C316.48 215.873 317.304 218.05 319.06 218.05C330.813 218.015 360.017 218.086 370.982 219.192C384.886 220.584 425.019 225.687 433.332 225.009C441.717 224.296 450.102 210.77 456.301 202.134ZM508.69 192.748C495.79 187.752 481.922 187.216 477.407 192.106C474.254 195.532 451.715 227.186 451.715 227.186C451.715 227.186 466.299 217.908 478.375 224.153C485.004 227.579 484.753 230.934 484.753 230.934C484.753 230.934 525.997 226.366 527.681 223.332C529.33 220.263 521.59 197.744 508.69 192.748Z" fill="#A7E92F"></path><path d="M469.381 242.71C473.86 242.71 477.981 242.532 479.665 241.997C484.681 240.355 485.721 235.644 485.756 235.466C485.864 234.895 485.506 234.324 484.932 234.181C484.359 234.074 483.786 234.431 483.678 235.002C483.642 235.145 482.818 238.713 479.02 239.962C475.723 241.033 459.419 240.426 453.399 240.105C452.79 240.069 452.288 240.533 452.252 241.104C452.216 241.711 452.682 242.211 453.256 242.246C454.617 242.318 462.465 242.71 469.381 242.71Z" fill="black"></path><path d="M480.741 299.096C480.92 299.096 481.099 299.096 481.278 299.096C489.341 298.632 499.517 287.997 502.456 284.75C504.964 281.966 512.274 273.366 514.782 265.05C517.506 264.979 520.229 265.336 522.916 266.121L525.066 259.019C521.949 258.091 518.724 257.592 515.427 257.592C514.639 253.345 511.521 250.419 506.612 249.526C482.783 245.173 461.928 259.983 461.068 260.625L465.44 266.621C465.619 266.478 484.646 253.024 505.286 256.807C507.221 257.163 507.759 257.877 507.938 258.305C506.29 258.627 504.606 259.091 502.921 259.626C496.507 261.731 490.272 265.336 484.897 270.118C474.9 278.969 472.248 287.355 473.108 292.244C473.896 296.527 476.763 299.096 480.741 299.096ZM506.254 266.407C505.967 266.978 505.681 267.584 505.322 268.227C502.886 272.652 499.231 277.47 495.002 281.824C487.728 289.318 482.21 291.887 480.705 291.673C480.669 291.566 480.561 291.352 480.49 290.959C479.988 288.033 483.07 281.681 489.878 275.65C494.142 271.867 499.911 268.262 506.254 266.407Z" fill="white"></path><path d="M446.985 344.063C451.858 344.063 456.803 340.53 460.996 333.964C465.403 327.076 468.521 317.619 469.811 307.341C471.101 297.063 470.384 287.106 467.804 279.362C465.152 271.368 460.745 266.586 455.477 265.944L455.334 267.014L455.477 265.944C450.21 265.301 444.799 268.834 440.212 275.972C435.805 282.859 432.687 292.317 431.397 302.595C430.107 312.872 430.824 322.829 433.404 330.573C436.056 338.567 440.463 343.35 445.731 343.992C446.161 344.028 446.555 344.063 446.985 344.063ZM454.259 268.013C454.582 268.013 454.904 268.049 455.227 268.085C459.634 268.62 463.397 272.903 465.762 280.076C468.234 287.534 468.915 297.134 467.661 307.091C466.407 317.084 463.397 326.22 459.168 332.822C455.083 339.21 450.389 342.422 445.982 341.851C441.574 341.315 437.812 337.033 435.447 329.86C432.974 322.401 432.293 312.801 433.547 302.844C434.802 292.852 437.812 283.716 442.04 277.114C445.838 271.19 450.138 268.013 454.259 268.013Z" fill="black"></path><path d="M449.422 321.507C453.005 321.507 455.8 314.048 456.732 306.411C457.234 302.378 457.198 298.524 456.66 295.526C455.872 291.173 454.26 290.102 453.041 289.959C451.823 289.817 449.96 290.459 448.132 294.492C446.878 297.239 445.91 300.987 445.409 305.019C444.441 312.835 445.373 321.007 449.1 321.471C449.207 321.507 449.315 321.507 449.422 321.507ZM452.719 292.101H452.755C453.149 292.136 454.009 293.028 454.546 295.919C455.048 298.703 455.048 302.343 454.582 306.161C453.471 314.976 450.533 319.508 449.35 319.366C448.168 319.223 446.412 314.12 447.523 305.305C447.989 301.486 448.92 297.953 450.067 295.384C451.285 292.743 452.289 292.101 452.719 292.101Z" fill="black"></path><path d="M531.91 307.696C538.826 307.696 545.383 297.382 547.139 283.499C547.963 276.755 547.497 270.259 545.813 265.156C544.021 259.803 541.083 256.627 537.5 256.163C533.916 255.735 530.261 258.09 527.216 262.836C524.313 267.369 522.271 273.543 521.411 280.288C520.551 287.032 521.052 293.528 522.736 298.631C524.528 303.984 527.466 307.16 531.05 307.624C531.336 307.695 531.623 307.696 531.91 307.696ZM536.64 258.304C536.819 258.304 536.998 258.304 537.213 258.34C539.901 258.661 542.266 261.409 543.771 265.87C545.383 270.652 545.813 276.826 544.989 283.285C543.376 296.097 537.141 306.268 531.336 305.554C528.649 305.233 526.284 302.485 524.779 298.024C523.166 293.242 522.736 287.068 523.561 280.609C524.349 274.185 526.32 268.297 529.043 264.05C531.372 260.338 534.131 258.304 536.64 258.304Z" fill="black"></path><path d="M533.486 293.065C536.138 293.065 538.001 287.891 538.61 282.93C538.933 280.289 538.933 277.72 538.574 275.757C538.037 272.724 536.818 271.938 535.887 271.831C533.092 271.474 531.157 276.828 530.512 281.931C529.867 287.034 530.44 292.708 533.235 293.03C533.307 293.065 533.378 293.065 533.486 293.065ZM535.6 273.937C536.138 274.258 537.141 277.22 536.46 282.645C535.779 288.105 534.095 290.71 533.486 290.888C532.948 290.567 531.945 287.605 532.626 282.181C533.307 276.756 534.991 274.115 535.6 273.937Z" fill="black"></path><path d="M437.167 343.385C437.741 343.385 438.206 342.921 438.242 342.35C438.278 341.743 437.812 341.243 437.203 341.243C437.06 341.243 422.01 340.565 416.205 336.568C413.266 334.534 412.801 332.928 412.801 332.892C412.693 332.321 412.12 331.965 411.546 332.072C410.973 332.179 410.579 332.75 410.722 333.356C410.758 333.606 411.296 335.819 415.022 338.353C421.365 342.671 436.522 343.349 437.167 343.385C437.131 343.385 437.131 343.385 437.167 343.385Z" fill="black"></path><path d="M523.991 307.019C524.493 307.019 524.959 306.662 525.066 306.127C525.174 305.556 524.78 304.985 524.171 304.913L518.079 303.914C517.506 303.807 516.932 304.2 516.861 304.806C516.753 305.377 517.147 305.948 517.756 306.02L523.848 307.019C523.884 307.019 523.92 307.019 523.991 307.019Z" fill="black"></path><path d="M311.391 271.903C317.375 271.903 324.004 271.653 331.386 271.046C331.995 271.01 332.425 270.475 332.354 269.904C332.318 269.297 331.78 268.869 331.207 268.941C306.016 271.01 289.533 268.869 280.144 266.692C269.968 264.337 265.704 261.482 265.668 261.446C265.166 261.125 264.521 261.232 264.163 261.732C263.84 262.231 263.948 262.874 264.449 263.231C265.059 263.588 277.529 271.903 311.391 271.903Z" fill="black"></path><path d="M507.543 188.715C507.436 189.893 507.436 232.111 507.436 232.111L513.778 230.398L511.664 189.964L507.543 188.715Z" fill="#A5E82F"></path><path d="M331.315 263.373C331.745 263.373 332.175 263.088 332.318 262.66C332.533 262.089 332.247 261.482 331.673 261.304C331.53 261.232 315.727 255.558 296.664 252.881C286.631 251.49 278.64 251.989 273.731 252.703C268.356 253.452 265.382 254.523 265.238 254.559C264.665 254.773 264.378 255.379 264.593 255.95C264.808 256.521 265.417 256.807 265.955 256.593C265.991 256.593 268.893 255.522 274.089 254.808C278.855 254.166 286.595 253.666 296.342 255.023C315.154 257.663 330.742 263.266 330.885 263.302C331.064 263.338 331.207 263.373 331.315 263.373Z" fill="black"></path><path d="M335.472 306.769C339.7 306.769 362.419 291.245 366.969 288.104C367.471 287.783 367.579 287.105 367.256 286.605C366.934 286.106 366.253 285.999 365.751 286.32C354.714 293.921 338.088 304.592 335.508 304.592C335.508 304.592 335.508 304.592 335.472 304.592C333.716 304.556 317.125 302.558 299.209 300.131C274.699 296.812 264.701 295.027 263.483 294.456C261.906 293.1 254.202 280.11 249.687 272.152C249.4 271.652 248.755 271.474 248.218 271.759C247.716 272.045 247.537 272.687 247.824 273.222C249.83 276.756 259.971 294.457 262.229 296.205C262.694 296.562 263.913 297.526 298.384 302.201C315.334 304.485 333.358 306.733 335.472 306.769Z" fill="black"></path><path d="M243.021 239.535C243.63 239.535 244.096 239.071 244.096 238.464V116.02L282.294 89.3977V219.514C282.294 220.121 282.76 220.585 283.369 220.585C283.979 220.585 284.444 220.121 284.444 219.514V87.3278C284.444 86.9352 284.229 86.5784 283.871 86.3642C283.513 86.1858 283.083 86.2215 282.76 86.4356L242.412 114.557C242.125 114.771 241.946 115.093 241.946 115.449V238.428C241.946 239.035 242.412 239.535 243.021 239.535Z" fill="black"></path><path d="M372.093 171.193C372.702 171.193 373.168 170.729 373.168 170.122V139.038C373.168 138.681 372.989 138.36 372.702 138.146L332.354 110.024C331.852 109.668 331.207 109.81 330.849 110.274C330.49 110.774 330.634 111.416 331.1 111.773L370.982 139.574V170.086C371.018 170.693 371.484 171.193 372.093 171.193Z" fill="black"></path><path d="M331.744 189.858C332.354 189.858 332.819 189.394 332.819 188.787V58.7425C332.819 58.1358 332.354 57.6719 331.744 57.6719H271.258C270.649 57.6719 270.183 58.1358 270.183 58.7425V85.1155C270.183 85.7222 270.649 86.1861 271.258 86.1861C271.867 86.1861 272.333 85.7222 272.333 85.1155V59.8131H330.669V188.787C330.669 189.394 331.171 189.858 331.744 189.858Z" fill="black"></path><path d="M243.021 132.581H265.525C266.134 132.581 266.6 132.117 266.6 131.51C266.6 130.903 266.134 130.439 265.525 130.439H243.021C242.412 130.439 241.946 130.903 241.946 131.51C241.946 132.117 242.412 132.581 243.021 132.581Z" fill="black"></path><path d="M243.021 152.672H265.525C266.134 152.672 266.6 152.209 266.6 151.602C266.6 150.995 266.134 150.531 265.525 150.531H243.021C242.412 150.531 241.946 150.995 241.946 151.602C241.946 152.209 242.412 152.672 243.021 152.672Z" fill="black"></path><path d="M243.021 174.12H265.525C266.134 174.12 266.6 173.656 266.6 173.049C266.6 172.442 266.134 171.979 265.525 171.979H243.021C242.412 171.979 241.946 172.442 241.946 173.049C241.946 173.656 242.412 174.12 243.021 174.12Z" fill="black"></path><path d="M243.021 194.212H265.525C266.134 194.212 266.6 193.748 266.6 193.141C266.6 192.534 266.134 192.07 265.525 192.07H243.021C242.412 192.07 241.946 192.534 241.946 193.141C241.946 193.712 242.412 194.212 243.021 194.212Z" fill="black"></path><path d="M243.021 214.305H265.525C266.134 214.305 266.6 213.841 266.6 213.235C266.6 212.628 266.134 212.164 265.525 212.164H243.021C242.412 212.164 241.946 212.628 241.946 213.235C241.946 213.841 242.412 214.305 243.021 214.305Z" fill="black"></path><path d="M202.709 191.286H225.212C225.821 191.286 226.287 190.822 226.287 190.215C226.287 189.608 225.821 189.145 225.212 189.145H202.709C202.1 189.145 201.634 189.608 201.634 190.215C201.634 190.822 202.1 191.286 202.709 191.286Z" fill="black"></path><path d="M202.709 210.235H225.212C225.821 210.235 226.287 209.771 226.287 209.164C226.287 208.558 225.821 208.094 225.212 208.094H202.709C202.1 208.094 201.634 208.558 201.634 209.164C201.634 209.771 202.1 210.235 202.709 210.235Z" fill="black"></path><path d="M202.709 230.327H225.212C225.821 230.327 226.287 229.863 226.287 229.256C226.287 228.649 225.821 228.186 225.212 228.186H202.709C202.1 228.186 201.634 228.649 201.634 229.256C201.634 229.863 202.1 230.327 202.709 230.327Z" fill="black"></path><path d="M349.16 156.489H371.663C372.272 156.489 372.738 156.025 372.738 155.418C372.738 154.812 372.272 154.348 371.663 154.348H349.16C348.551 154.348 348.085 154.812 348.085 155.418C348.085 156.025 348.587 156.489 349.16 156.489Z" fill="black"></path><path d="M283.334 160.024H311.571C312.18 160.024 312.646 159.56 312.646 158.953C312.646 158.347 312.18 157.883 311.571 157.883H283.334C282.725 157.883 282.259 158.347 282.259 158.953C282.259 159.56 282.76 160.024 283.334 160.024Z" fill="black"></path><path d="M283.334 180.116H311.571C312.18 180.116 312.646 179.652 312.646 179.045C312.646 178.439 312.18 177.975 311.571 177.975H283.334C282.725 177.975 282.259 178.439 282.259 179.045C282.259 179.652 282.76 180.116 283.334 180.116Z" fill="black"></path><path d="M283.334 140.61H311.571C312.18 140.61 312.646 140.146 312.646 139.539C312.646 138.933 312.18 138.469 311.571 138.469H283.334C282.725 138.469 282.259 138.933 282.259 139.539C282.259 140.146 282.76 140.61 283.334 140.61Z" fill="black"></path><path d="M303.042 101.212H331.279C331.888 101.212 332.354 100.748 332.354 100.141C332.354 99.5342 331.888 99.0703 331.279 99.0703H303.042C302.433 99.0703 301.967 99.5342 301.967 100.141C301.967 100.748 302.468 101.212 303.042 101.212Z" fill="black"></path><path d="M303.042 80.2272H331.279C331.888 80.2272 332.354 79.7632 332.354 79.1566C332.354 78.5499 331.888 78.0859 331.279 78.0859H303.042C302.433 78.0859 301.967 78.5499 301.967 79.1566C301.967 79.7632 302.468 80.2272 303.042 80.2272Z" fill="black"></path><path d="M202.709 271.867C203.318 271.867 203.784 271.403 203.784 270.796V160.13H239.223C239.832 160.13 240.298 159.666 240.298 159.059C240.298 158.452 239.832 157.988 239.223 157.988H202.709C202.1 157.988 201.634 158.452 201.634 159.059V270.832C201.634 271.403 202.1 271.867 202.709 271.867Z" fill="black"></path><path d="M484.718 369.329C484.825 369.329 484.933 369.329 485.04 369.293C485.542 369.15 535.529 354.233 574.373 324.898C592.289 311.372 600.173 298.882 597.844 287.783C596.195 280.003 589.351 272.973 578.028 267.406C569.607 263.266 561.759 261.374 561.437 261.303C560.864 261.16 560.29 261.517 560.147 262.088C560.004 262.659 560.362 263.23 560.935 263.373C561.258 263.444 592.074 270.903 595.729 288.211C597.879 298.418 590.283 310.195 573.083 323.185C534.526 352.306 484.933 367.08 484.431 367.259C483.858 367.437 483.535 368.008 483.714 368.579C483.822 369.008 484.252 369.329 484.718 369.329Z" fill="black"></path><path d="M78.7258 336.674C78.7616 336.674 78.7974 336.674 78.8691 336.674C157.81 326.932 225.069 309.195 225.75 309.016C226.323 308.874 226.682 308.267 226.502 307.696C226.359 307.125 225.75 306.768 225.177 306.947C224.496 307.125 157.416 324.826 78.5824 334.533C78.0091 334.604 77.5791 335.14 77.6507 335.711C77.7224 336.282 78.1882 336.674 78.7258 336.674Z" fill="black"></path><path d="M383.846 41.6834L438.815 27.7653C439.424 27.6225 440.069 27.6225 440.678 27.7653L495.646 41.6834C497.223 42.0759 498.37 43.4677 498.477 45.0737C499.158 56.458 501.021 100.71 490.092 122.194C476.046 149.816 446.913 160.201 440.857 162.093C440.141 162.307 439.352 162.307 438.636 162.093C432.616 160.201 403.447 149.816 389.401 122.194C378.471 100.71 380.335 56.458 381.016 45.0737C381.123 43.4677 382.27 42.0759 383.846 41.6834Z" fill="#A7E92F"></path><path d="M434.586 158.917C435.052 158.917 435.554 158.845 436.02 158.702C441.825 156.882 471.602 146.355 485.864 118.269C490.594 108.99 493.496 94.5721 494.536 75.4794C495.36 60.0981 494.679 45.9659 494.356 40.5771C494.213 38.4715 492.78 36.7228 490.737 36.2232L435.769 22.3051C434.981 22.091 434.156 22.091 433.404 22.3051L378.436 36.2232C376.393 36.7228 374.924 38.5072 374.816 40.5771C374.494 45.9659 373.813 60.0981 374.637 75.4794C375.676 94.5721 378.579 108.99 383.309 118.269C397.571 146.319 427.348 156.882 433.153 158.702C433.655 158.845 434.121 158.917 434.586 158.917ZM434.586 24.3036C434.801 24.3036 435.016 24.3393 435.231 24.375L490.2 38.2931C491.346 38.5786 492.135 39.5421 492.206 40.7198C492.529 46.0729 493.21 60.1338 492.386 75.3723C491.382 94.1796 488.551 108.276 483.965 117.305C470.097 144.606 441.072 154.884 435.375 156.668C434.873 156.847 434.3 156.847 433.798 156.668C428.101 154.884 399.076 144.606 385.208 117.341C380.621 108.312 377.791 94.2153 376.787 75.408C375.963 60.1695 376.644 46.1086 376.966 40.7555C377.038 39.5778 377.826 38.6143 378.973 38.3288L433.941 24.4107C434.156 24.3393 434.371 24.3036 434.586 24.3036Z" fill="black"></path><path d="M429.571 116.52L403.771 90.3967L413.051 81.2964L428.926 97.3557L452.54 69.9121L462.43 78.37L429.571 116.52Z" fill="white"></path></svg>